<?xml version="1.0" encoding="UTF-8" standalone="no"?>
<!DOCTYPE score-partwise PUBLIC "-//Recordare//DTD MusicXML 3.0 Partwise//EN" "http://www.musicxml.org/dtds/partwise.dtd"><score-partwise version="3.0"><work><work-title>PNO-FILTER</work-title></work><identification><encoding><encoding-date>2021-12-15</encoding-date><software>Opusmodus</software><encoding-description>https://opusmodus.com</encoding-description></encoding></identification><credit><credit-type>title</credit-type><credit-words>PNO-FILTER</credit-words></credit><part-list><part-group type="start" number="1"><group-name>Piano</group-name><group-abbreviation>Pno.</group-abbreviation><group-symbol>brace</group-symbol><group-barline>yes</group-barline></part-group><score-part id="part--1"><part-name></part-name><part-abbreviation></part-abbreviation></score-part><score-part id="part--2"><part-name></part-name><part-abbreviation></part-abbreviation></score-part><part-group type="stop" number="1"/></part-list><part id="part--1"><measure number="1"><print><measure-numbering>measure</measure-numbering></print><attributes><divisions>12</divisions><key><fifths>0</fifths><mode>major</mode></key><time><beats>4</beats><beat-type>4</beat-type></time><clef><sign>G</sign><line>2</line></clef></attributes><direction placement="above" directive="yes"><direction-type><metronome><beat-unit>quarter</beat-unit><per-minute>80</per-minute></metronome></direction-type></direction><note dynamics="28"><pitch><step>G</step><alter>0</alter><octave>5</octave></pitch><duration>4</duration><type>eighth</type><time-modification><actual-notes>3</actual-notes><normal-notes>2</normal-notes></time-modification><notations><dynamics placement="below"><pp/></dynamics><tuplet type="start" bracket="yes"/></notations></note><note><rest/><duration>8</duration><type>quarter</type><time-modification><actual-notes>3</actual-notes><normal-notes>2</normal-notes></time-modification><notations><tuplet type="stop"/></notations></note><note><rest/><duration>8</duration><type>quarter</type><time-modification><actual-notes>3</actual-notes><normal-notes>2</normal-notes></time-modification><notations><tuplet type="start" bracket="yes"/></notations></note><note><pitch><step>C</step><alter>0</alter><octave>4</octave></pitch><duration>4</duration><type>eighth</type><time-modification><actual-notes>3</actual-notes><normal-notes>2</normal-notes></time-modification><notations><tuplet type="stop"/></notations></note><note><rest/><duration>4</duration><type>eighth</type><time-modification><actual-notes>3</actual-notes><normal-notes>2</normal-notes></time-modification><notations><tuplet type="start" bracket="yes"/></notations></note><note><pitch><step>D</step><alter>0</alter><octave>4</octave></pitch><duration>4</duration><type>eighth</type><time-modification><actual-notes>3</actual-notes><normal-notes>2</normal-notes></time-modification></note><note><rest/><duration>4</duration><type>eighth</type><time-modification><actual-notes>3</actual-notes><normal-notes>2</normal-notes></time-modification><notations><tuplet type="stop"/></notations></note><note><rest/><duration>4</duration><type>eighth</type><time-modification><actual-notes>3</actual-notes><normal-notes>2</normal-notes></time-modification><notations><tuplet type="start" bracket="yes"/></notations></note><note><pitch><step>G</step><alter>0</alter><octave>4</octave></pitch><duration>4</duration><type>eighth</type><time-modification><actual-notes>3</actual-notes><normal-notes>2</normal-notes></time-modification></note><note><rest/><duration>4</duration><type>eighth</type><time-modification><actual-notes>3</actual-notes><normal-notes>2</normal-notes></time-modification><notations><tuplet type="stop"/></notations></note></measure><measure number="2"><attributes><divisions>12</divisions></attributes><note dynamics="28"><pitch><step>E</step><alter>-1</alter><octave>4</octave></pitch><duration>4</duration><type>eighth</type><accidental>flat</accidental><time-modification><actual-notes>3</actual-notes><normal-notes>2</normal-notes></time-modification><notations><tuplet type="start" bracket="yes"/></notations></note><note><rest/><duration>8</duration><type>quarter</type><time-modification><actual-notes>3</actual-notes><normal-notes>2</normal-notes></time-modification><notations><tuplet type="stop"/></notations></note><note><rest/><duration>4</duration><type>eighth</type><time-modification><actual-notes>3</actual-notes><normal-notes>2</normal-notes></time-modification><notations><tuplet type="start" bracket="yes"/></notations></note><note><pitch><step>B</step><alter>-1</alter><octave>4</octave></pitch><duration>4</duration><type>eighth</type><accidental>flat</accidental><time-modification><actual-notes>3</actual-notes><normal-notes>2</normal-notes></time-modification><beam number="1">begin</beam></note><note><pitch><step>B</step><alter>-1</alter><octave>5</octave></pitch><duration>4</duration><type>eighth</type><accidental>flat</accidental><time-modification><actual-notes>3</actual-notes><normal-notes>2</normal-notes></time-modification><beam number="1">end</beam><notations><tuplet type="stop"/></notations></note><note><pitch><step>D</step><alter>0</alter><octave>4</octave></pitch><duration>4</duration><type>eighth</type><time-modification><actual-notes>3</actual-notes><normal-notes>2</normal-notes></time-modification><notations><tuplet type="start" bracket="yes"/></notations></note><note><rest/><duration>8</duration><type>quarter</type><time-modification><actual-notes>3</actual-notes><normal-notes>2</normal-notes></time-modification><notations><tuplet type="stop"/></notations></note><note><rest/><duration>4</duration><type>eighth</type><time-modification><actual-notes>3</actual-notes><normal-notes>2</normal-notes></time-modification><notations><tuplet type="start" bracket="yes"/></notations></note><note><pitch><step>D</step><alter>0</alter><octave>5</octave></pitch><duration>4</duration><type>eighth</type><time-modification><actual-notes>3</actual-notes><normal-notes>2</normal-notes></time-modification></note><note><rest/><duration>4</duration><type>eighth</type><time-modification><actual-notes>3</actual-notes><normal-notes>2</normal-notes></time-modification><notations><tuplet type="stop"/></notations></note></measure><measure number="3"><attributes><divisions>8</divisions></attributes><note><rest/><duration>8</duration><type>quarter</type></note><note dynamics="28"><pitch><step>G</step><alter>1</alter><octave>5</octave></pitch><duration>4</duration><type>eighth</type><accidental>sharp</accidental><beam number="1">begin</beam></note><note><pitch><step>A</step><alter>0</alter><octave>4</octave></pitch><duration>4</duration><type>eighth</type><beam number="1">end</beam></note><note><rest/><duration>8</duration><type>quarter</type></note><note><pitch><step>C</step><alter>0</alter><octave>4</octave></pitch><duration>4</duration><type>eighth</type></note><note><rest/><duration>4</duration><type>eighth</type></note></measure><measure number="4"><attributes><divisions>8</divisions></attributes><note><rest/><duration>4</duration><type>eighth</type></note><note dynamics="28"><pitch><step>D</step><alter>0</alter><octave>4</octave></pitch><duration>4</duration><type>eighth</type></note><note><rest/><duration>4</duration><type>eighth</type></note><note><pitch><step>G</step><alter>0</alter><octave>4</octave></pitch><duration>4</duration><type>eighth</type></note><note><rest/><duration>8</duration><type>quarter</type></note><note><pitch><step>F</step><alter>1</alter><octave>5</octave></pitch><duration>4</duration><type>eighth</type><accidental>sharp</accidental></note><note><rest/><duration>4</duration><type>eighth</type></note></measure><measure number="5"><attributes><divisions>8</divisions></attributes><note dynamics="28"><pitch><step>E</step><alter>0</alter><octave>4</octave></pitch><duration>4</duration><type>eighth</type></note><note><rest/><duration>4</duration><type>eighth</type></note><note><rest/><duration>4</duration><type>eighth</type></note><note><pitch><step>A</step><alter>0</alter><octave>4</octave></pitch><duration>4</duration><type>eighth</type></note><note><pitch><step>B</step><alter>0</alter><octave>5</octave></pitch><duration>4</duration><type>eighth</type></note><note><rest/><duration>4</duration><type>eighth</type></note><note><rest/><duration>4</duration><type>eighth</type></note><note><pitch><step>B</step><alter>0</alter><octave>4</octave></pitch><duration>4</duration><type>eighth</type></note></measure><measure number="6"><attributes><divisions>12</divisions></attributes><note><rest/><duration>8</duration><type>quarter</type><time-modification><actual-notes>3</actual-notes><normal-notes>2</normal-notes></time-modification><notations><tuplet type="start" bracket="yes"/></notations></note><note dynamics="28"><pitch><step>B</step><alter>-1</alter><octave>5</octave></pitch><duration>4</duration><type>eighth</type><accidental>flat</accidental><time-modification><actual-notes>3</actual-notes><normal-notes>2</normal-notes></time-modification><notations><tuplet type="stop"/></notations></note><note><pitch><step>A</step><alter>0</alter><octave>5</octave></pitch><duration>4</duration><type>eighth</type><time-modification><actual-notes>3</actual-notes><normal-notes>2</normal-notes></time-modification><notations><tuplet type="start" bracket="yes"/></notations></note><note><rest/><duration>8</duration><type>quarter</type><time-modification><actual-notes>3</actual-notes><normal-notes>2</normal-notes></time-modification><notations><tuplet type="stop"/></notations></note><note><rest/><duration>4</duration><type>eighth</type><time-modification><actual-notes>3</actual-notes><normal-notes>2</normal-notes></time-modification><notations><tuplet type="start" bracket="yes"/></notations></note><note><pitch><step>D</step><alter>0</alter><octave>4</octave></pitch><duration>4</duration><type>eighth</type><time-modification><actual-notes>3</actual-notes><normal-notes>2</normal-notes></time-modification><beam number="1">begin</beam></note><note><pitch><step>B</step><alter>0</alter><octave>4</octave></pitch><duration>4</duration><type>eighth</type><time-modification><actual-notes>3</actual-notes><normal-notes>2</normal-notes></time-modification><beam number="1">end</beam><notations><tuplet type="stop"/></notations></note><note><pitch><step>G</step><alter>0</alter><octave>4</octave></pitch><duration>4</duration><type>eighth</type><time-modification><actual-notes>3</actual-notes><normal-notes>2</normal-notes></time-modification><notations><tuplet type="start" bracket="yes"/></notations></note><note><rest/><duration>8</duration><type>quarter</type><time-modification><actual-notes>3</actual-notes><normal-notes>2</normal-notes></time-modification><notations><tuplet type="stop"/></notations></note></measure><measure number="7"><attributes><divisions>8</divisions></attributes><note dynamics="28"><pitch><step>C</step><alter>1</alter><octave>5</octave></pitch><duration>4</duration><type>eighth</type><accidental>sharp</accidental></note><note><rest/><duration>4</duration><type>eighth</type></note><note><pitch><step>D</step><alter>0</alter><octave>5</octave></pitch><duration>4</duration><type>eighth</type><beam number="1">begin</beam></note><note><pitch><step>G</step><alter>1</alter><octave>5</octave></pitch><duration>4</duration><type>eighth</type><accidental>sharp</accidental><beam number="1">end</beam></note><note><rest/><duration>8</duration><type>quarter</type></note><note><pitch><step>B</step><alter>0</alter><octave>4</octave></pitch><duration>4</duration><type>eighth</type></note><note><rest/><duration>4</duration><type>eighth</type></note></measure><measure number="8"><attributes><divisions>8</divisions></attributes><note><rest/><duration>16</duration><type>half</type></note><note dynamics="28"><pitch><step>C</step><alter>0</alter><octave>6</octave></pitch><duration>4</duration><type>eighth</type><beam number="1">begin</beam></note><note><pitch><step>G</step><alter>0</alter><octave>5</octave></pitch><duration>4</duration><type>eighth</type><beam number="1">end</beam></note><note><pitch><step>C</step><alter>0</alter><octave>5</octave></pitch><duration>4</duration><type>eighth</type><beam number="1">begin</beam></note><note><pitch><step>C</step><alter>1</alter><octave>5</octave></pitch><duration>4</duration><type>eighth</type><accidental>sharp</accidental><beam number="1">end</beam></note></measure><measure number="9"><attributes><divisions>8</divisions></attributes><note><rest/><duration>8</duration><type>quarter</type></note><note dynamics="28"><pitch><step>B</step><alter>0</alter><octave>5</octave></pitch><duration>4</duration><type>eighth</type><beam number="1">begin</beam></note><note><pitch><step>B</step><alter>0</alter><octave>4</octave></pitch><duration>4</duration><type>eighth</type><beam number="1">end</beam></note><note><rest/><duration>8</duration><type>quarter</type></note><note><pitch><step>C</step><alter>0</alter><octave>5</octave></pitch><duration>4</duration><type>eighth</type><beam number="1">begin</beam></note><note><pitch><step>F</step><alter>1</alter><octave>5</octave></pitch><duration>4</duration><type>eighth</type><accidental>sharp</accidental><beam number="1">end</beam></note></measure><measure number="10"><attributes><divisions>12</divisions></attributes><note><rest/><duration>12</duration><type>quarter</type></note><note dynamics="28"><pitch><step>D</step><alter>0</alter><octave>4</octave></pitch><duration>4</duration><type>eighth</type><time-modification><actual-notes>3</actual-notes><normal-notes>2</normal-notes></time-modification><beam number="1">begin</beam><notations><tuplet type="start" bracket="yes"/></notations></note><note><pitch><step>B</step><alter>-1</alter><octave>5</octave></pitch><duration>4</duration><type>eighth</type><accidental>flat</accidental><time-modification><actual-notes>3</actual-notes><normal-notes>2</normal-notes></time-modification><beam number="1">end</beam></note><note><rest/><duration>4</duration><type>eighth</type><time-modification><actual-notes>3</actual-notes><normal-notes>2</normal-notes></time-modification><notations><tuplet type="stop"/></notations></note><note><pitch><step>A</step><alter>0</alter><octave>5</octave></pitch><duration>4</duration><type>eighth</type><time-modification><actual-notes>3</actual-notes><normal-notes>2</normal-notes></time-modification><beam number="1">begin</beam><notations><tuplet type="start" bracket="yes"/></notations></note><note><pitch><step>B</step><alter>0</alter><octave>4</octave></pitch><duration>4</duration><type>eighth</type><time-modification><actual-notes>3</actual-notes><normal-notes>2</normal-notes></time-modification><beam number="1">end</beam></note><note><rest/><duration>4</duration><type>eighth</type><time-modification><actual-notes>3</actual-notes><normal-notes>2</normal-notes></time-modification><notations><tuplet type="stop"/></notations></note><note><pitch><step>G</step><alter>0</alter><octave>4</octave></pitch><duration>4</duration><type>eighth</type><time-modification><actual-notes>3</actual-notes><normal-notes>2</normal-notes></time-modification><notations><tuplet type="start" bracket="yes"/></notations></note><note><rest/><duration>8</duration><type>quarter</type><time-modification><actual-notes>3</actual-notes><normal-notes>2</normal-notes></time-modification><notations><tuplet type="stop"/></notations></note></measure><measure number="11"><attributes><divisions>8</divisions></attributes><note><rest/><duration>4</duration><type>eighth</type></note><note dynamics="28"><pitch><step>D</step><alter>0</alter><octave>5</octave></pitch><duration>4</duration><type>eighth</type></note><note><rest/><duration>4</duration><type>eighth</type></note><note><pitch><step>E</step><alter>0</alter><octave>4</octave></pitch><duration>4</duration><type>eighth</type></note><note><rest/><duration>12</duration><type>quarter</type><dot/></note><note><pitch><step>G</step><alter>0</alter><octave>4</octave></pitch><duration>4</duration><type>eighth</type></note><barline><bar-style>light-heavy</bar-style></barline></measure></part><part id="part--2"><measure number="1"><attributes><divisions>12</divisions><key><fifths>0</fifths><mode>major</mode></key><time><beats>4</beats><beat-type>4</beat-type></time><clef><sign>F</sign><line>4</line></clef></attributes><note><rest/><duration>4</duration><type>eighth</type><time-modification><actual-notes>3</actual-notes><normal-notes>2</normal-notes></time-modification><notations><tuplet type="start" bracket="yes"/></notations></note><note><pitch><step>G</step><alter>0</alter><octave>3</octave></pitch><duration>4</duration><type>eighth</type><time-modification><actual-notes>3</actual-notes><normal-notes>2</normal-notes></time-modification><beam number="1">begin</beam></note><note><pitch><step>G</step><alter>0</alter><octave>1</octave></pitch><duration>4</duration><type>eighth</type><time-modification><actual-notes>3</actual-notes><normal-notes>2</normal-notes></time-modification><beam number="1">end</beam><notations><tuplet type="stop"/></notations></note><note><pitch><step>G</step><alter>0</alter><octave>2</octave></pitch><duration>4</duration><type>eighth</type><time-modification><actual-notes>3</actual-notes><normal-notes>2</normal-notes></time-modification><beam number="1">begin</beam><notations><tuplet type="start" bracket="yes"/></notations></note><note><pitch><step>C</step><alter>0</alter><octave>2</octave></pitch><duration>4</duration><type>eighth</type><time-modification><actual-notes>3</actual-notes><normal-notes>2</normal-notes></time-modification><beam number="1">end</beam></note><note><rest/><duration>4</duration><type>eighth</type><time-modification><actual-notes>3</actual-notes><normal-notes>2</normal-notes></time-modification><notations><tuplet type="stop"/></notations></note><note><pitch><step>E</step><alter>-1</alter><octave>1</octave></pitch><duration>4</duration><type>eighth</type><accidental>flat</accidental><time-modification><actual-notes>3</actual-notes><normal-notes>2</normal-notes></time-modification><notations><tuplet type="start" bracket="yes"/></notations></note><note><rest/><duration>4</duration><type>eighth</type><time-modification><actual-notes>3</actual-notes><normal-notes>2</normal-notes></time-modification></note><note><pitch><step>B</step><alter>0</alter><octave>3</octave></pitch><duration>4</duration><type>eighth</type><time-modification><actual-notes>3</actual-notes><normal-notes>2</normal-notes></time-modification><notations><tuplet type="stop"/></notations></note><note><pitch><step>E</step><alter>0</alter><octave>3</octave></pitch><duration>4</duration><type>eighth</type><time-modification><actual-notes>3</actual-notes><normal-notes>2</normal-notes></time-modification><notations><tuplet type="start" bracket="yes"/></notations></note><note><rest/><duration>4</duration><type>eighth</type><time-modification><actual-notes>3</actual-notes><normal-notes>2</normal-notes></time-modification></note><note><pitch><step>B</step><alter>0</alter><octave>2</octave></pitch><duration>4</duration><type>eighth</type><time-modification><actual-notes>3</actual-notes><normal-notes>2</normal-notes></time-modification><notations><tuplet type="stop"/></notations></note></measure><measure number="2"><attributes><divisions>12</divisions></attributes><note><rest/><duration>4</duration><type>eighth</type><time-modification><actual-notes>3</actual-notes><normal-notes>2</normal-notes></time-modification><notations><tuplet type="start" bracket="yes"/></notations></note><note><pitch><step>E</step><alter>0</alter><octave>2</octave></pitch><duration>4</duration><type>eighth</type><time-modification><actual-notes>3</actual-notes><normal-notes>2</normal-notes></time-modification><beam number="1">begin</beam></note><note><pitch><step>B</step><alter>0</alter><octave>3</octave></pitch><duration>4</duration><type>eighth</type><time-modification><actual-notes>3</actual-notes><normal-notes>2</normal-notes></time-modification><beam number="1">end</beam><notations><tuplet type="stop"/></notations></note><note><pitch><step>G</step><alter>0</alter><octave>2</octave></pitch><duration>4</duration><type>eighth</type><time-modification><actual-notes>3</actual-notes><normal-notes>2</normal-notes></time-modification><notations><tuplet type="start" bracket="yes"/></notations></note><note><rest/><duration>8</duration><type>quarter</type><time-modification><actual-notes>3</actual-notes><normal-notes>2</normal-notes></time-modification><notations><tuplet type="stop"/></notations></note><note><rest/><duration>4</duration><type>eighth</type><time-modification><actual-notes>3</actual-notes><normal-notes>2</normal-notes></time-modification><notations><tuplet type="start" bracket="yes"/></notations></note><note><pitch><step>B</step><alter>0</alter><octave>1</octave></pitch><duration>4</duration><type>eighth</type><time-modification><actual-notes>3</actual-notes><normal-notes>2</normal-notes></time-modification><beam number="1">begin</beam></note><note><pitch><step>G</step><alter>0</alter><octave>3</octave></pitch><duration>4</duration><type>eighth</type><time-modification><actual-notes>3</actual-notes><normal-notes>2</normal-notes></time-modification><beam number="1">end</beam><notations><tuplet type="stop"/></notations></note><note><pitch><step>D</step><alter>0</alter><octave>3</octave></pitch><duration>4</duration><type>eighth</type><time-modification><actual-notes>3</actual-notes><normal-notes>2</normal-notes></time-modification><notations><tuplet type="start" bracket="yes"/></notations></note><note><rest/><duration>4</duration><type>eighth</type><time-modification><actual-notes>3</actual-notes><normal-notes>2</normal-notes></time-modification></note><note><pitch><step>B</step><alter>0</alter><octave>2</octave></pitch><duration>4</duration><type>eighth</type><time-modification><actual-notes>3</actual-notes><normal-notes>2</normal-notes></time-modification><notations><tuplet type="stop"/></notations></note></measure><measure number="3"><attributes><divisions>8</divisions></attributes><note dynamics="28"><pitch><step>G</step><alter>0</alter><octave>3</octave></pitch><duration>4</duration><type>eighth</type><beam number="1">begin</beam><notations><dynamics placement="below"><pp/></dynamics></notations></note><note><pitch><step>C</step><alter>1</alter><octave>2</octave></pitch><duration>4</duration><type>eighth</type><accidental>sharp</accidental><beam number="1">end</beam></note><note><rest/><duration>16</duration><type>half</type></note><note><rest/><duration>4</duration><type>eighth</type></note><note><pitch><step>G</step><alter>0</alter><octave>2</octave></pitch><duration>4</duration><type>eighth</type></note></measure><measure number="4"><attributes><divisions>8</divisions></attributes><note><rest/><duration>8</duration><type>quarter</type></note><note dynamics="28"><pitch><step>D</step><alter>0</alter><octave>2</octave></pitch><duration>4</duration><type>eighth</type></note><note><rest/><duration>4</duration><type>eighth</type></note><note><pitch><step>B</step><alter>-1</alter><octave>1</octave></pitch><duration>4</duration><type>eighth</type><accidental>flat</accidental><beam number="1">begin</beam></note><note><pitch><step>D</step><alter>0</alter><octave>3</octave></pitch><duration>4</duration><type>eighth</type><beam number="1">end</beam></note><note><rest/><duration>4</duration><type>eighth</type></note><note><pitch><step>G</step><alter>0</alter><octave>2</octave></pitch><duration>4</duration><type>eighth</type></note></measure><measure number="5"><attributes><divisions>8</divisions></attributes><note><rest/><duration>4</duration><type>eighth</type></note><note dynamics="28"><pitch><step>A</step><alter>0</alter><octave>3</octave></pitch><duration>4</duration><type>eighth</type></note><note><pitch><step>F</step><alter>0</alter><octave>2</octave></pitch><duration>4</duration><type>eighth</type></note><note><rest/><duration>4</duration><type>eighth</type></note><note><rest/><duration>4</duration><type>eighth</type></note><note><pitch><step>G</step><alter>0</alter><octave>2</octave></pitch><duration>4</duration><type>eighth</type></note><note><pitch><step>A</step><alter>0</alter><octave>2</octave></pitch><duration>4</duration><type>eighth</type></note><note><rest/><duration>4</duration><type>eighth</type></note></measure><measure number="6"><attributes><divisions>12</divisions></attributes><note dynamics="28"><pitch><step>A</step><alter>0</alter><octave>3</octave></pitch><duration>4</duration><type>eighth</type><time-modification><actual-notes>3</actual-notes><normal-notes>2</normal-notes></time-modification><notations><tuplet type="start" bracket="yes"/></notations></note><note><rest/><duration>8</duration><type>quarter</type><time-modification><actual-notes>3</actual-notes><normal-notes>2</normal-notes></time-modification><notations><tuplet type="stop"/></notations></note><note><rest/><duration>4</duration><type>eighth</type><time-modification><actual-notes>3</actual-notes><normal-notes>2</normal-notes></time-modification><notations><tuplet type="start" bracket="yes"/></notations></note><note><pitch><step>G</step><alter>0</alter><octave>3</octave></pitch><duration>4</duration><type>eighth</type><time-modification><actual-notes>3</actual-notes><normal-notes>2</normal-notes></time-modification><beam number="1">begin</beam></note><note><pitch><step>E</step><alter>-1</alter><octave>2</octave></pitch><duration>4</duration><type>eighth</type><accidental>flat</accidental><time-modification><actual-notes>3</actual-notes><normal-notes>2</normal-notes></time-modification><beam number="1">end</beam><notations><tuplet type="stop"/></notations></note><note><rest/><duration>12</duration><type>quarter</type></note><note><rest/><duration>4</duration><type>eighth</type><time-modification><actual-notes>3</actual-notes><normal-notes>2</normal-notes></time-modification><notations><tuplet type="start" bracket="yes"/></notations></note><note><pitch><step>G</step><alter>0</alter><octave>2</octave></pitch><duration>4</duration><type>eighth</type><time-modification><actual-notes>3</actual-notes><normal-notes>2</normal-notes></time-modification><beam number="1">begin</beam></note><note><pitch><step>C</step><alter>0</alter><octave>3</octave></pitch><duration>4</duration><type>eighth</type><time-modification><actual-notes>3</actual-notes><normal-notes>2</normal-notes></time-modification><beam number="1">end</beam><notations><tuplet type="stop"/></notations></note></measure><measure number="7"><attributes><divisions>8</divisions></attributes><note><rest/><duration>4</duration><type>eighth</type></note><note dynamics="28"><pitch><step>E</step><alter>0</alter><octave>3</octave></pitch><duration>4</duration><type>eighth</type></note><note><rest/><duration>8</duration><type>quarter</type></note><note><pitch><step>B</step><alter>0</alter><octave>2</octave></pitch><duration>4</duration><type>eighth</type><beam number="1">begin</beam></note><note><pitch><step>B</step><alter>0</alter><octave>3</octave></pitch><duration>4</duration><type>eighth</type><beam number="1">end</beam></note><note><rest/><duration>8</duration><type>quarter</type></note></measure><measure number="8"><attributes><divisions>8</divisions></attributes><note><rest/><duration>4</duration><type>eighth</type></note><note dynamics="28"><pitch><step>F</step><alter>1</alter><octave>2</octave></pitch><duration>4</duration><type>eighth</type><accidental>sharp</accidental></note><note><pitch><step>G</step><alter>0</alter><octave>2</octave></pitch><duration>4</duration><type>eighth</type></note><note><rest/><duration>4</duration><type>eighth</type></note><note><rest/><duration>16</duration><type>half</type></note></measure><measure number="9"><attributes><divisions>8</divisions></attributes><note><rest/><duration>16</duration><type>half</type></note><note><rest/><duration>4</duration><type>eighth</type></note><note dynamics="28"><pitch><step>G</step><alter>0</alter><octave>2</octave></pitch><duration>4</duration><type>eighth</type></note><note><rest/><duration>8</duration><type>quarter</type></note></measure><measure number="10"><attributes><divisions>12</divisions></attributes><note><rest/><duration>4</duration><type>eighth</type><time-modification><actual-notes>3</actual-notes><normal-notes>2</normal-notes></time-modification><notations><tuplet type="start" bracket="yes"/></notations></note><note dynamics="28"><pitch><step>G</step><alter>0</alter><octave>3</octave></pitch><duration>4</duration><type>eighth</type><time-modification><actual-notes>3</actual-notes><normal-notes>2</normal-notes></time-modification><beam number="1">begin</beam></note><note><pitch><step>E</step><alter>-1</alter><octave>2</octave></pitch><duration>4</duration><type>eighth</type><accidental>flat</accidental><time-modification><actual-notes>3</actual-notes><normal-notes>2</normal-notes></time-modification><beam number="1">end</beam><notations><tuplet type="stop"/></notations></note><note><rest/><duration>8</duration><type>quarter</type><time-modification><actual-notes>3</actual-notes><normal-notes>2</normal-notes></time-modification><notations><tuplet type="start" bracket="yes"/></notations></note><note><pitch><step>A</step><alter>0</alter><octave>3</octave></pitch><duration>4</duration><type>eighth</type><time-modification><actual-notes>3</actual-notes><normal-notes>2</normal-notes></time-modification><notations><tuplet type="stop"/></notations></note><note><rest/><duration>8</duration><type>quarter</type><time-modification><actual-notes>3</actual-notes><normal-notes>2</normal-notes></time-modification><notations><tuplet type="start" bracket="yes"/></notations></note><note><pitch><step>C</step><alter>0</alter><octave>3</octave></pitch><duration>4</duration><type>eighth</type><time-modification><actual-notes>3</actual-notes><normal-notes>2</normal-notes></time-modification><notations><tuplet type="stop"/></notations></note><note><rest/><duration>8</duration><type>quarter</type><time-modification><actual-notes>3</actual-notes><normal-notes>2</normal-notes></time-modification><notations><tuplet type="start" bracket="yes"/></notations></note><note><pitch><step>G</step><alter>0</alter><octave>2</octave></pitch><duration>4</duration><type>eighth</type><time-modification><actual-notes>3</actual-notes><normal-notes>2</normal-notes></time-modification><notations><tuplet type="stop"/></notations></note></measure><measure number="11"><attributes><divisions>8</divisions></attributes><note dynamics="28"><pitch><step>C</step><alter>0</alter><octave>2</octave></pitch><duration>4</duration><type>eighth</type></note><note><rest/><duration>4</duration><type>eighth</type></note><note><pitch><step>A</step><alter>0</alter><octave>2</octave></pitch><duration>4</duration><type>eighth</type></note><note><rest/><duration>4</duration><type>eighth</type></note><note><pitch><step>E</step><alter>0</alter><octave>3</octave></pitch><duration>4</duration><type>eighth</type><beam number="1">begin</beam></note><note><pitch><step>E</step><alter>0</alter><octave>2</octave></pitch><duration>4</duration><type>eighth</type><beam number="1">end</beam></note><note><rest/><duration>8</duration><type>quarter</type></note><barline><bar-style>light-heavy</bar-style></barline></measure></part></score-partwise>